<?xml version="1.0" encoding="UTF-8"?>
<svg id="Capa_2" data-name="Capa 2" xmlns="http://www.w3.org/2000/svg" xmlns:xlink="http://www.w3.org/1999/xlink" viewBox="0 0 62.19 62.2">
  <defs>
    <style>
      .cls-1 {
        fill: none;
      }

      .cls-2 {
        fill: #091033;
        fill-rule: evenodd;
      }

      .cls-3 {
        clip-path: url(#clippath);
      }
    </style>
    <clipPath id="clippath">
      <rect class="cls-1" width="62.19" height="62.2"/>
    </clipPath>
  </defs>
  <g id="Capa_1-2" data-name="Capa 1">
    <g class="cls-3">
      <path class="cls-2" d="M15.03,46.48l-14.43-3.57c-.28-.07-.49-.27-.57-.55-.08-.29,0-.57.2-.78l4.44-4.44c.15-.15.34-.23.55-.23l13.38-.17c.24,0,.44-.1.59-.28l8.31-9.61c.18-.21.24-.46.17-.72-.07-.27-.25-.46-.51-.55L1.47,16.91c-.28-.09-.47-.31-.52-.6-.06-.29.04-.56.26-.76l6.17-5.27c.17-.15.37-.21.59-.19l31.45,3.26c.26.03.5-.07.67-.27,5.64-6.4,14.01-16.95,20.45-11.66.04.04.08.07.11.11,5.29,6.44-5.26,14.81-11.66,20.45-.2.17-.29.41-.27.68l3.26,31.45c.02.22-.04.42-.19.59l-5.27,6.17c-.19.22-.46.32-.76.26-.29-.05-.51-.24-.6-.52l-8.67-25.69c-.09-.26-.28-.44-.54-.51-.27-.07-.52-.01-.73.17l-9.61,8.31c-.18.15-.27.35-.28.59l-.17,13.38c0,.21-.08.4-.23.55l-4.44,4.44c-.21.21-.49.28-.78.2-.28-.08-.48-.29-.55-.57l-3.57-14.43c-.07-.29-.29-.51-.58-.58Z"/>
    </g>
  </g>
</svg>