<?xml version="1.0" encoding="UTF-8"?>
<svg id="Capa_2" data-name="Capa 2" xmlns="http://www.w3.org/2000/svg" xmlns:xlink="http://www.w3.org/1999/xlink" viewBox="0 0 35.51 32.38">
  <defs>
    <style>
      .cls-1 {
        fill: none;
      }

      .cls-2 {
        fill: #09e871;
        fill-rule: evenodd;
      }

      .cls-3 {
        clip-path: url(#clippath);
      }
    </style>
    <clipPath id="clippath">
      <rect class="cls-1" x="7.79" width="27.72" height="23.55"/>
    </clipPath>
  </defs>
  <g id="Capa_1-2" data-name="Capa 1">
    <g class="cls-3">
      <path class="cls-2" d="M8.38,12.64c1.97,1.49,4.13,4.71,5.79,7.82,2.95,5.53,4.37,1.44,5.71-1.93,1.78-4.5,6.18-13.39,15.61-18.39-7.05,2.57-14.71,7.44-18.46,15.86-2.34-3.66-3.46-4.52-4.59-4.45-1.12.06-4.07,1.09-4.07,1.09Z"/>
    </g>
    <path class="cls-2" d="M4.6,5.57C8.86,1.31,14.97.01,20.35,1.67c-4.36-.95-9.1.28-12.49,3.67-5.3,5.3-5.3,13.89,0,19.19,5.3,5.3,13.89,5.3,19.19,0,3.4-3.39,4.61-8.14,3.66-12.49,1.67,5.39.37,11.48-3.9,15.75-6.14,6.13-16.07,6.13-22.21,0C-1.53,21.65-1.53,11.7,4.6,5.57Z"/>
  </g>
</svg>