<?xml version="1.0" encoding="UTF-8"?>
<svg id="Capa_2" data-name="Capa 2" xmlns="http://www.w3.org/2000/svg" xmlns:xlink="http://www.w3.org/1999/xlink" viewBox="0 0 64.5 77.28">
  <defs>
    <style>
      .cls-1 {
        fill: none;
      }

      .cls-2 {
        fill: #091033;
        fill-rule: evenodd;
      }

      .cls-3 {
        clip-path: url(#clippath);
      }
    </style>
    <clipPath id="clippath">
      <rect class="cls-1" width="64.5" height="77.28"/>
    </clipPath>
  </defs>
  <g id="Capa_1-2" data-name="Capa 1">
    <g class="cls-3">
      <path class="cls-2" d="M55.76,9.28c2.27,0,4.11,1.85,4.11,4.13s-1.84,4.13-4.11,4.13-4.12-1.85-4.12-4.13,1.84-4.13,4.12-4.13ZM32.27,28.38c-.35,0-.64.12-.83.43-2.97,4.69-5.33,7.84-5.31,14.08.03,5.63,2.35,14.04,3.74,20.15.18.8-.3,1.6-1.09,1.81l-.24.06c-.68.17-1.36-.12-1.7-.73l-6.48-11.64c-.08-.15-.31-.07-.29.1l1.69,11.19c.15.97-.56,1.85-1.54,1.93l-.28.02c-.73.05-1.39-.35-1.67-1.04-3.11-7.65-5.66-15.46-7.78-23.38-.29-1.07-.69-1.94-1.32-2.85-3.09-4.51-6.01-9.21-8.73-14.12-.47-.84-.21-1.9.59-2.44l.14-.09c.83-.56,1.96-.34,2.53.49,1.44,2.09,3.02,4.06,4.73,5.91,2.27,2.44,4.69,4.97,8.15,5.45,3.99.55,5.34-1.01,7.83-3.51,7.08-7.11,8.55-7.11,15.64,0,2.49,2.5,3.84,4.06,7.83,3.51,3.46-.47,5.88-3.01,8.15-5.45,1.71-1.84,3.29-3.81,4.73-5.91.57-.83,1.69-1.05,2.53-.49l.14.09c.8.54,1.06,1.59.59,2.44-2.73,4.91-5.64,9.61-8.73,14.12-.63.91-1.03,1.79-1.32,2.85-2.12,7.92-4.66,15.72-7.78,23.38-.28.68-.93,1.09-1.67,1.04l-.28-.02c-.98-.07-1.69-.95-1.54-1.93l1.69-11.19c.03-.17-.2-.25-.29-.1l-6.48,11.64c-.34.61-1.02.9-1.7.73l-.24-.06c-.79-.21-1.27-1.01-1.09-1.81,1.39-6.1,3.72-14.52,3.74-20.15.03-6.24-2.34-9.4-5.31-14.08-.17-.28-.45-.43-.78-.43ZM5.85,48.96l1-1.07c.46-.49.46-1.18.02-1.64-.45-.46-1.18-.46-1.63-.02l-1.13,1.19c-.41.43-.39,1.2.11,1.64.48.42,1.21.37,1.63-.11ZM3.23,53.25l.51-1.16c.27-.63.05-1.27-.52-1.55-.57-.28-1.26-.05-1.54.53l-.59,1.36c-.23.54.05,1.26.67,1.49.6.23,1.26-.07,1.48-.67ZM2.53,57.71v-1.18c0-.69-.45-1.19-1.09-1.22-.63-.03-1.18.45-1.21,1.09v1.43c0,.58.55,1.14,1.21,1.09.64-.03,1.13-.58,1.09-1.21ZM3.74,62.15l-.51-1.16c-.28-.63-.89-.91-1.49-.68-.59.23-.9.89-.67,1.49l.59,1.36c.23.54.95.82,1.55.53.57-.29.8-.97.53-1.55ZM6.85,66.35l-1-1.07c-.47-.49-1.15-.54-1.63-.11-.48.42-.53,1.15-.11,1.63l1.12,1.19c.41.44,1.18.46,1.64-.01.44-.45.44-1.18-.01-1.63ZM11.74,69.99c.55.32.74,1.03.43,1.58-.32.57-1.06.74-1.58.43l-1.56-.96c-.53-.35-.68-1.07-.33-1.6.35-.53,1.04-.68,1.6-.33l1.44.89ZM18.08,72.78c.61.2.94.85.74,1.46-.2.62-.88.95-1.45.74l-1.9-.67c-.59-.23-.89-.9-.67-1.49.23-.59.87-.9,1.49-.67l1.78.64ZM25.44,74.47c.63.09,1.07.68.97,1.31-.09.64-.67,1.07-1.3.98l-2.1-.35c-.63-.11-1.04-.72-.92-1.34.11-.63.71-1.04,1.34-.93l2.01.33ZM33.28,74.94c.64-.01,1.16.49,1.17,1.13.01.65-.52,1.18-1.13,1.18h-2.17c-.64-.01-1.14-.54-1.13-1.18.02-.63.52-1.13,1.18-1.13h2.08ZM41.05,74.14c.63-.11,1.22.3,1.34.93.11.62-.3,1.24-.93,1.34l-2.09.35c-.63.09-1.21-.35-1.3-.98-.09-.65.35-1.2.98-1.31l2.01-.33ZM48.18,72.14c.59-.23,1.26.07,1.49.67.22.59-.07,1.28-.67,1.49l-1.89.67c-.61.19-1.26-.14-1.45-.74s.11-1.23.74-1.46l1.79-.64ZM54.18,69.1c.54-.34,1.25-.2,1.6.34.35.55.18,1.29-.34,1.6l-1.56.96c-.55.32-1.26.13-1.57-.43-.32-.55-.14-1.23.43-1.58l1.44-.89ZM58.63,65.28l-1,1.07c-.46.49-.46,1.18-.02,1.64.45.45,1.18.46,1.63.02l1.13-1.19c.41-.43.39-1.2-.11-1.64-.48-.42-1.21-.37-1.63.11ZM61.25,60.98l-.51,1.16c-.27.63-.05,1.27.52,1.55.57.28,1.26.05,1.54-.53l.59-1.36c.23-.54-.05-1.26-.67-1.49-.59-.22-1.26.08-1.48.67ZM61.95,56.53v1.18c0,.69.45,1.19,1.09,1.22.64.03,1.18-.45,1.21-1.09v-1.43c0-.58-.55-1.14-1.21-1.1-.64.04-1.12.58-1.09,1.22ZM60.74,52.08l.51,1.16c.28.63.89.91,1.49.68.59-.22.9-.89.67-1.48l-.59-1.36c-.23-.54-.95-.82-1.55-.53-.57.29-.8.97-.53,1.55ZM57.63,47.89l1,1.07c.47.49,1.15.54,1.63.11.48-.42.53-1.15.11-1.63l-1.12-1.19c-.41-.44-1.18-.46-1.64.01-.44.45-.44,1.18.01,1.63ZM32.24.32c2.28,0,4.12,1.85,4.12,4.13s-1.84,4.13-4.12,4.13-4.11-1.85-4.11-4.13S29.96.32,32.24.32ZM17.5,23.85c-2.27,0-4.11,1.85-4.11,4.13s1.84,4.13,4.11,4.13,4.12-1.85,4.12-4.13-1.84-4.13-4.12-4.13ZM46.92,23.97c-2.27,0-4.11,1.85-4.11,4.13s1.84,4.13,4.11,4.13,4.12-1.85,4.12-4.13-1.84-4.13-4.12-4.13ZM43.88.42c-.77-.24-1.58.08-1.97.78-1.71,3.09-3.68,5.57-5.92,7.39-2.21,1.8-5.29,1.8-7.5,0-2.23-1.82-4.2-4.3-5.92-7.39-.71-1.28-2.58-1.05-3.1.19-.97,2.3-2.08,6.48-3.73,10.08-1.76,3.82-2.2,6.44-6.81,7.49-1.56.36-3.3.4-5.16.23-.39-.04-.29.25-.18.3.8.28,1.51.81,2.02,1.55,1.65,2.4,3.31,4.39,5.29,6.46.09.09.24.04.26-.08.56-3.52,3.91-5.94,7.45-5.32.09.02.17-.05.18-.14.57-4.76,1.65-9.33,2.92-14.13.04-.14.22-.16.29-.03,2.02,4.13,4.01,8.52,4.73,12.23.22,1.17.4,2.4.54,3.67.01.13.16.18.26.1.64-.58,2.58-1.56,4.72-1.59,1.82-.02,3.84.79,4.72,1.58.09.08.24.03.26-.1.14-1.28.31-2.5.54-3.67.72-3.71,2.71-8.1,4.73-12.23.06-.13.25-.11.29.03,1.26,4.79,2.34,9.35,2.91,14.1.01.09.09.15.18.14,3.55-.57,6.86,1.9,7.38,5.42.02.13.18.18.27.08,1.79-1.88,5.57-7.44,7.35-8.09.13-.05.19-.33-.15-.3-1.86.17-3.6.13-5.16-.23-4.6-1.06-5.05-3.68-6.81-7.49-1.65-3.59-2.76-7.78-3.73-10.08-.23-.54-.6-.8-1.13-.97ZM9.07,9.35c2.27,0,4.11,1.85,4.11,4.13s-1.84,4.13-4.11,4.13-4.12-1.85-4.12-4.13,1.84-4.13,4.12-4.13Z"/>
    </g>
  </g>
</svg>