<?xml version="1.0" encoding="UTF-8"?>
<svg id="Capa_2" data-name="Capa 2" xmlns="http://www.w3.org/2000/svg" xmlns:xlink="http://www.w3.org/1999/xlink" viewBox="0 0 75.43 61.53">
  <defs>
    <style>
      .cls-1 {
        fill: none;
      }

      .cls-2 {
        clip-path: url(#clippath);
      }

      .cls-3 {
        fill: #091033;
      }
    </style>
    <clipPath id="clippath">
      <rect class="cls-1" width="75.43" height="61.53"/>
    </clipPath>
  </defs>
  <g id="Capa_1-2" data-name="Capa 1">
    <g class="cls-2">
      <path class="cls-3" d="M62.47,16.11c-1.08,0-1.97-.89-1.98-1.98,0-1.09.88-1.98,1.96-1.99,1.1,0,1.98.88,1.98,1.97,0,1.1-.88,1.99-1.97,1.99ZM54.28,16.15c-1.08,0-1.97-.89-1.98-1.98,0-1.09.88-1.98,1.97-1.99,1.09,0,1.98.89,1.98,1.98,0,1.1-.88,1.99-1.97,1.99ZM67.15,29.49h2.78c3.03-.02,5.49-2.52,5.48-5.56l-.07-18.4c-.01-3.04-2.49-5.53-5.52-5.51l-31.21.11c-3.03.01-5.49,2.51-5.48,5.55l.02,4.08c4.22.99,8.01,2.79,11.09,5.14-.08-.22-.14-.46-.14-.71,0-1.09.88-1.98,1.97-1.99,1.08,0,1.97.89,1.98,1.98,0,1.09-.88,1.99-1.97,1.99-.12,0-.23-.01-.35-.03,4.07,3.64,6.61,8.36,6.81,13.56l21.56,14.27-6.96-14.47ZM36.06,31.84c-1.43.01-2.61-1.16-2.61-2.59,0-1.45,1.16-2.61,2.59-2.62,1.44,0,2.61,1.16,2.61,2.6.01,1.44-1.16,2.61-2.59,2.61ZM25.28,31.89c-1.44.01-2.6-1.16-2.6-2.6s1.15-2.61,2.59-2.62c1.43,0,2.6,1.16,2.6,2.6.01,1.44-1.16,2.61-2.59,2.62ZM14.49,31.93c-1.43,0-2.6-1.16-2.6-2.6s1.15-2.61,2.59-2.61c1.44,0,2.6,1.16,2.6,2.6.01,1.44-1.14,2.61-2.58,2.62ZM25.21,10.95C11.27,11,0,19.73.04,30.44c.02,6.13,3.74,11.57,9.53,15.1l-7.55,15.98,18.11-12.17c1.68.27,3.43.41,5.22.4,13.94-.05,25.2-8.78,25.16-19.49-.04-10.72-11.36-19.36-25.3-19.31"/>
    </g>
  </g>
</svg>