<?xml version="1.0" encoding="UTF-8"?>
<svg id="Capa_2" data-name="Capa 2" xmlns="http://www.w3.org/2000/svg" xmlns:xlink="http://www.w3.org/1999/xlink" viewBox="0 0 62.53 66.2">
  <defs>
    <style>
      .cls-1 {
        fill: none;
      }

      .cls-2 {
        clip-path: url(#clippath-1);
      }

      .cls-3 {
        clip-path: url(#clippath);
      }

      .cls-4 {
        fill: #091033;
      }
    </style>
    <clipPath id="clippath">
      <rect class="cls-1" width="42.96" height="59.54"/>
    </clipPath>
    <clipPath id="clippath-1">
      <rect class="cls-1" x="24.29" y="31.54" width="38.23" height="34.67"/>
    </clipPath>
  </defs>
  <g id="Capa_1-2" data-name="Capa 1">
    <g>
      <g class="cls-3">
        <path class="cls-4" d="M20.99,53.06h.02c1.13,0,2.07.93,2.07,2.07s-.94,2.08-2.07,2.08h-.02c-1.13,0-2.07-.92-2.07-2.08s.94-2.07,2.07-2.07ZM37.68,0H4.33C1.96,0,.03,1.93.03,4.31v50.52c0,1.01.35,1.92.93,2.65h-.02c.11.13.22.26.33.37.03.03.05.05.08.07.16.15.33.29.53.43.03.02.06.04.08.06.2.14.42.24.63.34.05.02.1.04.14.06.24.09.46.17.71.22.04,0,.08.02.12.02.26.05.52.08.79.08h33.34c.27,0,.53-.03.79-.08.04,0,.08-.02.12-.02.02,0,.05-.02.07-.02-1.9-.77-3.76-1.91-5.52-3.34l-.15-.13c-.14-.11-.27-.22-.41-.31l-.38-.3c-.36-.29-.78-.59-1.19-.9-.61-.45-1.2-.91-1.8-1.36l-.33-.28s-.05-.04-.07-.05l-.11-.1c-.46-.39-.88-.81-1.28-1.3H4.51c-.39,0-.7-.31-.7-.7V5.64c0-.38.31-.69.7-.69h32.99c.38,0,.7.31.7.69v31.67c.73-.4,1.46-.79,2.18-1.2.51-.26.99-.53,1.47-.8.04-.02.09-.05.13-.06V4.31C41.98,1.93,40.05,0,37.68,0"/>
      </g>
      <g class="cls-2">
        <path class="cls-4" d="M57.77,51.56l3.11,4.02-10.74,8.32-3.11-4.02,10.74-8.33ZM29.54,33.35c-.72-.81-1.55-1.23-2.54-1.31-.53-.04-1.05.14-1.46.48-.33.31-.54.7-.58,1.14l-.04.15c-.19.55-.24,1.39.54,2.4l3.09,3.9.63.78c1,1.39,1.99,2.74,2.98,4.08l2.2,3c.15.21.21.39.19.47l-.14.08c-.11,0-.24-.06-.35-.13-.18-.1-.32-.24-.49-.41-.16-.15-.29-.26-.42-.34l-1.64-1c-.35-.2-.77-.36-1.21-.45-.07-.02-.16-.03-.23-.04-.64-.05-1.21.21-1.67.79-.47.59-.53,1.26-.13,1.84.55.83,1.08,1.44,1.66,1.92.12.1.23.19.32.26,0,.02.02.02.02.03l.16.12c.58.46,1.17.9,1.76,1.34.43.31.85.64,1.26.95l.28.22c.22.15.44.34.67.52,1.63,1.33,3.3,2.36,5.06,3.06,1.42.57,2.89.95,4.42,1.12.03,0,.05.01.08.01.16.02.35.11.54.26.1.07.39.42.73.83-.03.11-.05.21-.06.32h0c-.1.78.08,1.58.61,2.23l2.08,2.69c.84,1.07,2.27,1.43,3.47.94.27-.09.52-.23.76-.42l9.61-7.47c.83-.65,1.23-1.65,1.14-2.63-.03-.57-.23-1.13-.61-1.61,0,0-2.08-2.66-2.08-2.67-.44-.57-1.13-.7-1.7-1.13-.52-.4-1.05-1.14-1.38-1.71-.59-.98-1.14-2.05-1.66-3.08-.73-1.43-1.49-2.9-2.36-4.22-.29-.42-.6-.83-.91-1.23-.49-.63-1.01-1.25-1.56-1.86-.38-.43-.78-.88-1.17-1.3-.86-.95-2.08-1.23-3.41-.81-.44.16-.86.34-1.25.54l-.52.28c-.97.52-1.93,1.05-2.9,1.56-1.22.68-2.45,1.34-3.68,2.01-.98.52-1.94.34-2.68-.48l-1.88-2.08-3.55-3.93"/>
      </g>
      <path class="cls-4" d="M8.73,11.55h24.55c.49,0,.88-.39.88-.88s-.39-.88-.88-.88H8.73c-.49,0-.88.39-.88.88s.39.88.88.88"/>
      <path class="cls-4" d="M33.28,17.41H8.73c-.49,0-.88.39-.88.88s.39.88.88.88h24.55c.49,0,.88-.38.88-.88s-.39-.88-.88-.88"/>
      <path class="cls-4" d="M33.28,25.02H8.73c-.49,0-.88.39-.88.88s.39.88.88.88h24.55c.49,0,.88-.39.88-.88s-.39-.88-.88-.88"/>
    </g>
  </g>
</svg>