<?xml version="1.0" encoding="UTF-8"?>
<svg id="Capa_2" data-name="Capa 2" xmlns="http://www.w3.org/2000/svg" xmlns:xlink="http://www.w3.org/1999/xlink" viewBox="0 0 70.46 54.58">
  <defs>
    <style>
      .cls-1 {
        fill: none;
      }

      .cls-2 {
        clip-path: url(#clippath);
      }

      .cls-3 {
        fill: #091033;
      }
    </style>
    <clipPath id="clippath">
      <rect class="cls-1" x="23.9" width="10.67" height="9.44"/>
    </clipPath>
  </defs>
  <g id="Capa_1-2" data-name="Capa 1">
    <g>
      <g class="cls-2">
        <path class="cls-3" d="M29.79,9.33c2.57,0,4.66-2.09,4.66-4.66,0-2.58-2.08-4.67-4.66-4.66-2.58-.02-4.67,2.07-4.66,4.66-.01,2.57,2.08,4.66,4.66,4.66"/>
      </g>
      <path class="cls-1" d="M0,4.1v41.16c0-4.09,3.22-8.91,8.58-8.92,0,0,5.34.01,5.35,0,1.6,0,1.71-.03,2.55-.86l8.71-8.72h-.03v-11.99c0-6.18,9.24-6.25,9.24,0v2.94l10.04-10.01c1.71-1.73,4.59-2.65,6.83-2.65h10.83c3.55,0,8.27,3.57,8.26,8.92.01,5.4-4.67,9.15-7.99,9.15-3.02,0-6.84,0-6.84,0-1.04,0-1.36.16-1.95.69l-27.84,27.74c-2.23,2.09-4.95,2.95-7.2,2.94-2.23.02-9.48,0-9.48,0-5.85.02-9.07-5.16-9.08-9.24v9.32h70.46V4.1H0Z"/>
      <path class="cls-3" d="M9.08,54.51s7.24.02,9.48,0c2.25.02,4.97-.84,7.2-2.94l27.84-27.74c.58-.53.91-.7,1.95-.69,0,0,3.82,0,6.84,0,3.32,0,8-3.75,7.99-9.15.01-5.35-4.7-8.91-8.26-8.92h-10.83c-2.24,0-5.12.91-6.83,2.65l-10.04,10.01v-2.94c0-6.25-9.24-6.18-9.24,0v11.99h.03l-8.71,8.72c-.84.83-.94.86-2.55.86-.01.01-5.35,0-5.35,0-5.36,0-8.58,4.83-8.58,8.92,0,4.09,3.22,9.26,9.08,9.24ZM8.65,41.07h6.34c1.85.02,3.07-.52,4.12-1.58l28.5-28.5c1.17-1.16,2.33-1.3,4.33-1.29h9.74c2.39-.02,3.98,2.64,3.99,4.22-.02,1.58-1.15,4.53-4.06,4.53h-5.84c-2.49,0-3.59.35-5.02,1.78l-28.04,28.04c-1.12,1.13-2.56,1.58-4.42,1.59h-9.21c-2.39-.01-4.48-2.02-4.49-4.66.02-2.64,2.01-4.11,4.06-4.13Z"/>
    </g>
  </g>
</svg>