<?xml version="1.0" encoding="UTF-8"?>
<svg id="Capa_2" data-name="Capa 2" xmlns="http://www.w3.org/2000/svg" xmlns:xlink="http://www.w3.org/1999/xlink" viewBox="0 0 44.66 63.52">
  <defs>
    <style>
      .cls-1 {
        fill: none;
      }

      .cls-2 {
        clip-path: url(#clippath-1);
      }

      .cls-3 {
        clip-path: url(#clippath-2);
      }

      .cls-4 {
        clip-path: url(#clippath);
      }

      .cls-5 {
        fill: #091033;
      }
    </style>
    <clipPath id="clippath">
      <rect class="cls-1" x="6.41" y="50.34" width="38.24" height="13.18"/>
    </clipPath>
    <clipPath id="clippath-1">
      <rect class="cls-5" x="17.08" y="55.67" width="27.58" height="2.67"/>
    </clipPath>
    <clipPath id="clippath-2">
      <rect class="cls-1" width="44.66" height="58.34"/>
    </clipPath>
  </defs>
  <g id="Capa_1-2" data-name="Capa 1">
    <g>
      <g class="cls-4">
        <path class="cls-5" d="M44.47,51.76c0-.14-.05-.24-.14-.34s-.2-.14-.33-.14H7.29c-.13,0-.23.06-.32.15-.09.09-.14.2-.14.33s.05.23.14.33.19.14.32.15h1.52v11.25l4.19-4.13,4.19,4.13v-11.25h26.82c.13,0,.24-.05.33-.14s.14-.2.14-.33Z"/>
      </g>
      <g>
        <rect class="cls-5" x="17.08" y="55.67" width="27.58" height="2.67"/>
        <g class="cls-2">
          <path class="cls-5" d="M18.37,56.1h26.29v2.15h-26.29v-2.15Z"/>
        </g>
      </g>
      <g class="cls-3">
        <path class="cls-5" d="M0,7.88v42.53C0,50.91.05,51.42.15,51.91c.09.5.24.98.43,1.45.19.47.42.92.7,1.34.28.43.59.82.94,1.18.35.36.74.69,1.16.98.42.29.85.53,1.32.73s.94.36,1.43.47.99.17,1.5.18v-2.15h-.05c-.58,0-1.13-.11-1.66-.33-.53-.22-.99-.53-1.4-.94-.41-.41-.72-.88-.94-1.41-.22-.53-.33-1.09-.33-1.66s.11-1.14.33-1.67.54-1.01.94-1.41.87-.72,1.4-.94,1.08-.33,1.66-.33h37.08V.04H7.81c-.52,0-1.02.05-1.53.15-.5.1-.99.25-1.46.45s-.93.44-1.35.72c-.42.29-.82.61-1.18.97-.36.36-.69.76-.97,1.19-.29.43-.53.88-.72,1.35s-.34.97-.44,1.47C.05,6.86,0,7.36,0,7.88Z"/>
      </g>
    </g>
  </g>
</svg>