<?xml version="1.0" encoding="UTF-8"?>
<svg id="Capa_2" data-name="Capa 2" xmlns="http://www.w3.org/2000/svg" xmlns:xlink="http://www.w3.org/1999/xlink" viewBox="0 0 64.51 64.51">
  <defs>
    <style>
      .cls-1 {
        fill: none;
      }

      .cls-2 {
        fill: #091033;
        fill-rule: evenodd;
      }

      .cls-3 {
        clip-path: url(#clippath);
      }
    </style>
    <clipPath id="clippath">
      <rect class="cls-1" width="64.51" height="64.51"/>
    </clipPath>
  </defs>
  <g id="Capa_1-2" data-name="Capa 1">
    <g>
      <g class="cls-3">
        <path class="cls-2" d="M32.26,5.86c-14.57,0-26.39,11.81-26.39,26.39s11.82,26.39,26.39,26.39,26.39-11.81,26.39-26.39S46.83,5.86,32.26,5.86ZM0,32.25C0,14.44,14.44,0,32.26,0s32.26,14.44,32.26,32.25-14.44,32.26-32.26,32.26S0,50.07,0,32.25Z"/>
      </g>
      <path class="cls-2" d="M29.97,17.27c-1.62,0-2.93,1.31-2.93,2.93v3.91h-5.86v-3.91c0-4.86,3.94-8.8,8.8-8.8h4.56c4.86,0,8.8,3.94,8.8,8.8v4.74c0,2.33-.93,4.57-2.58,6.22l-4.71,4.71c-.55.55-.86,1.3-.86,2.07v5.72h-5.86v-5.72c0-2.33.93-4.57,2.58-6.22l4.71-4.71c.55-.55.86-1.3.86-2.07v-4.74c0-1.62-1.31-2.93-2.93-2.93h-4.56Z"/>
      <path class="cls-2" d="M29.32,46.91h5.86v6.52h-5.86v-6.52Z"/>
    </g>
  </g>
</svg>