<?xml version="1.0" encoding="UTF-8"?>
<svg id="Capa_2" data-name="Capa 2" xmlns="http://www.w3.org/2000/svg" viewBox="0 0 39.7 59.55">
  <defs>
    <style>
      .cls-1 {
        fill: #091033;
      }
    </style>
  </defs>
  <g id="Capa_1-2" data-name="Capa 1">
    <g>
      <path class="cls-1" d="M.02,51.6c0,2.18,1.78,3.97,3.96,3.97v1.98c0,1.09.89,1.99,1.98,1.99s1.98-.9,1.98-1.99v-1.98h23.8v1.98c0,1.09.89,1.99,1.98,1.99s1.98-.9,1.98-1.99v-1.98c2.18,0,3.96-1.79,3.96-3.97v-3.97H.02v3.97Z"/>
      <path class="cls-1" d="M35.71,11.91h-7.93V3.97h1.98c1.09,0,1.98-.89,1.98-1.98s-.9-1.98-1.98-1.98H9.93c-1.09,0-1.98.89-1.98,1.98s.89,1.98,1.98,1.98h1.98v7.94H3.98C1.8,11.91.02,13.69.02,15.88v27.79h39.66V15.88c0-2.19-1.78-3.97-3.96-3.97ZM15.89,3.97h7.93v7.94h-7.93V3.97ZM17.86,33.74c0,1.09-.89,1.98-1.98,1.98s-1.98-.89-1.98-1.98v-7.94c0-1.09.89-1.98,1.98-1.98s1.98.89,1.98,1.98v7.94ZM25.8,33.74c0,1.09-.89,1.98-1.98,1.98s-1.98-.89-1.98-1.98v-7.94c0-1.09.89-1.98,1.98-1.98s1.98.89,1.98,1.98v7.94Z"/>
    </g>
  </g>
</svg>